<svg width="170" height="30" viewBox="0 0 170 30" fill="none" xmlns="http://www.w3.org/2000/svg">
<g id="JapaTravels">
<path id="Vector" d="M164.428 23.7897C163.579 23.7897 162.773 23.6802 162.009 23.4611C161.266 23.2202 160.576 22.8916 159.939 22.4754C159.302 22.0373 158.751 21.5225 158.284 20.931L160.13 19.0252C160.682 19.7262 161.319 20.2519 162.041 20.6024C162.762 20.931 163.569 21.0953 164.46 21.0953C165.352 21.0953 166.041 20.942 166.53 20.6353C167.018 20.3067 167.262 19.8576 167.262 19.2881C167.262 18.7185 167.06 18.2804 166.657 17.9737C166.275 17.6451 165.776 17.3823 165.161 17.1851C164.545 16.9661 163.887 16.758 163.187 16.5608C162.507 16.3417 161.86 16.0679 161.245 15.7393C160.629 15.4107 160.12 14.9617 159.716 14.3921C159.334 13.8226 159.143 13.0668 159.143 12.1249C159.143 11.1829 159.366 10.3724 159.812 9.69333C160.258 8.99235 160.873 8.45565 161.658 8.08325C162.465 7.71086 163.431 7.52466 164.556 7.52466C165.744 7.52466 166.795 7.74372 167.708 8.18183C168.642 8.59804 169.406 9.23331 170 10.0876L168.153 11.9934C167.729 11.4239 167.198 10.9858 166.561 10.6791C165.946 10.3724 165.246 10.2191 164.46 10.2191C163.632 10.2191 162.996 10.3724 162.55 10.6791C162.125 10.9639 161.913 11.3691 161.913 11.8949C161.913 12.4206 162.104 12.8259 162.486 13.1106C162.868 13.3954 163.367 13.6364 163.983 13.8335C164.619 14.0307 165.277 14.2388 165.957 14.4578C166.636 14.655 167.283 14.9288 167.899 15.2793C168.514 15.6298 169.013 16.1008 169.395 16.6922C169.798 17.2837 170 18.0614 170 19.0252C170 20.4929 169.491 21.6539 168.472 22.5082C167.474 23.3626 166.126 23.7897 164.428 23.7897Z" fill="#2D3134"/>
<path id="Vector_2" d="M152.563 23.4611V0H155.428V23.4611H152.563Z" fill="#2D3134"/>
<path id="Vector_3" d="M142.498 23.7897C140.991 23.7897 139.633 23.4392 138.423 22.7382C137.213 22.0153 136.258 21.0405 135.557 19.8138C134.857 18.5871 134.507 17.1961 134.507 15.6408C134.507 14.1074 134.846 12.7273 135.525 11.5006C136.226 10.2738 137.16 9.30998 138.327 8.609C139.516 7.8861 140.842 7.52466 142.307 7.52466C143.708 7.52466 144.939 7.85324 146 8.51042C147.083 9.16759 147.921 10.0767 148.515 11.2377C149.131 12.3987 149.439 13.713 149.439 15.1807C149.439 15.3998 149.428 15.6408 149.407 15.9036C149.386 16.1446 149.343 16.4294 149.279 16.758H136.512V14.2936H147.751L146.701 15.2465C146.701 14.195 146.52 13.3078 146.159 12.5849C145.799 11.8401 145.289 11.2706 144.631 10.8762C143.973 10.46 143.177 10.2519 142.243 10.2519C141.267 10.2519 140.407 10.471 139.664 10.9091C138.922 11.3472 138.348 11.9606 137.945 12.7492C137.542 13.5378 137.34 14.4688 137.34 15.5422C137.34 16.6375 137.552 17.6013 137.977 18.4337C138.402 19.2443 139.006 19.8795 139.792 20.3396C140.577 20.7777 141.479 20.9967 142.498 20.9967C143.347 20.9967 144.122 20.8434 144.822 20.5367C145.544 20.23 146.159 19.77 146.669 19.1566L148.515 21.0953C147.794 21.9715 146.902 22.6397 145.841 23.0997C144.801 23.5597 143.687 23.7897 142.498 23.7897Z" fill="#2D3134"/>
<path id="Vector_4" d="M125.013 23.4611L118.072 7.85324H121.256L126.828 21.0296H124.981L130.585 7.85324H133.641L126.7 23.4611H125.013Z" fill="#2D3134"/>
<path id="Vector_5" d="M107.724 23.7897C106.344 23.7897 105.092 23.4392 103.967 22.7382C102.842 22.0153 101.951 21.0405 101.293 19.8138C100.656 18.5871 100.338 17.207 100.338 15.6736C100.338 14.1402 100.656 12.7601 101.293 11.5334C101.951 10.3067 102.832 9.33189 103.935 8.609C105.06 7.8861 106.323 7.52466 107.724 7.52466C108.87 7.52466 109.889 7.77657 110.78 8.28041C111.693 8.76234 112.425 9.44142 112.977 10.3176C113.529 11.172 113.837 12.1687 113.901 13.3078V18.0066C113.837 19.1238 113.529 20.1205 112.977 20.9967C112.447 21.873 111.725 22.563 110.812 23.0668C109.921 23.5488 108.891 23.7897 107.724 23.7897ZM108.202 20.9967C109.624 20.9967 110.77 20.5038 111.64 19.5181C112.51 18.5104 112.945 17.2289 112.945 15.6736C112.945 14.6002 112.744 13.6692 112.34 12.8806C111.958 12.0701 111.407 11.4458 110.685 11.0077C109.963 10.5477 109.125 10.3176 108.17 10.3176C107.215 10.3176 106.366 10.5477 105.623 11.0077C104.901 11.4677 104.328 12.103 103.903 12.9135C103.5 13.7021 103.299 14.6112 103.299 15.6408C103.299 16.6922 103.5 17.6232 103.903 18.4337C104.328 19.2224 104.912 19.8467 105.655 20.3067C106.397 20.7667 107.246 20.9967 108.202 20.9967ZM112.754 23.4611V19.2552L113.296 15.4436L112.754 11.6649V7.85324H115.652V23.4611H112.754Z" fill="#2D3134"/>
<path id="Vector_6" d="M89.0114 23.4611V7.85324H91.8768V23.4611H89.0114ZM91.8768 14.5564L90.7943 14.0635C90.7943 12.0701 91.2401 10.4819 92.1315 9.29903C93.023 8.11612 94.3071 7.52466 95.9839 7.52466C96.748 7.52466 97.4379 7.66705 98.0534 7.95182C98.6689 8.21469 99.242 8.66376 99.7726 9.29903L97.8942 11.3034C97.5758 10.9529 97.2256 10.701 96.8436 10.5477C96.4615 10.3943 96.0158 10.3176 95.5064 10.3176C94.4451 10.3176 93.5749 10.6681 92.8956 11.3691C92.2164 12.0701 91.8768 13.1325 91.8768 14.5564Z" fill="#2D3134"/>
<path id="Vector_7" d="M78.8693 23.4611V1.31437H81.8621V23.4611H78.8693ZM71.3556 3.48304V0.657196H89.344V3.48304H71.3556Z" fill="#2D3134"/>
<path id="Vector_8" d="M60.4023 23.7897C59.0227 23.7897 57.7704 23.4392 56.6455 22.7382C55.5205 22.0153 54.6291 21.0405 53.9711 19.8138C53.3343 18.5871 53.0159 17.207 53.0159 15.6736C53.0159 14.1402 53.3343 12.7601 53.9711 11.5334C54.6291 10.3067 55.5099 9.33189 56.6136 8.609C57.7386 7.8861 59.0015 7.52466 60.4023 7.52466C61.5485 7.52466 62.5673 7.77657 63.4588 8.28041C64.3715 8.76234 65.1037 9.44142 65.6556 10.3176C66.2075 11.172 66.5152 12.1687 66.5789 13.3078V18.0066C66.5152 19.1238 66.2075 20.1205 65.6556 20.9967C65.125 21.873 64.4033 22.563 63.4906 23.0668C62.5992 23.5488 61.5697 23.7897 60.4023 23.7897ZM60.8799 20.9967C62.302 20.9967 63.4482 20.5038 64.3184 19.5181C65.1886 18.5104 65.6238 17.2289 65.6238 15.6736C65.6238 14.6002 65.4221 13.6692 65.0188 12.8806C64.6368 12.0701 64.0849 11.4458 63.3633 11.0077C62.6416 10.5477 61.8032 10.3176 60.8481 10.3176C59.8929 10.3176 59.0439 10.5477 58.301 11.0077C57.5794 11.4677 57.0063 12.103 56.5818 12.9135C56.1785 13.7021 55.9769 14.6112 55.9769 15.6408C55.9769 16.6922 56.1785 17.6232 56.5818 18.4337C57.0063 19.2224 57.59 19.8467 58.3329 20.3067C59.0758 20.7667 59.9248 20.9967 60.8799 20.9967ZM65.4327 23.4611V19.2552L65.974 15.4436L65.4327 11.6649V7.85324H68.33V23.4611H65.4327Z" fill="#F66F4D"/>
<path id="Vector_9" d="M43.3999 23.7897C42.2537 23.7897 41.2137 23.5488 40.2797 23.0668C39.3671 22.563 38.6348 21.873 38.0829 20.9967C37.5311 20.1205 37.2233 19.1238 37.1596 18.0066V13.3078C37.2233 12.1687 37.5311 11.172 38.0829 10.3176C38.656 9.44142 39.3989 8.76234 40.3116 8.28041C41.2455 7.77657 42.2749 7.52466 43.3999 7.52466C44.7795 7.52466 46.0212 7.8861 47.1249 8.609C48.2498 9.33189 49.1307 10.3067 49.7674 11.5334C50.4042 12.7601 50.7226 14.1402 50.7226 15.6736C50.7226 17.207 50.4042 18.5871 49.7674 19.8138C49.1307 21.0405 48.2498 22.0153 47.1249 22.7382C46.0212 23.4392 44.7795 23.7897 43.3999 23.7897ZM42.9223 20.9967C43.8774 20.9967 44.7158 20.7667 45.4375 20.3067C46.1591 19.8467 46.7322 19.2224 47.1567 18.4337C47.5812 17.6232 47.7935 16.6922 47.7935 15.6408C47.7935 14.6112 47.5812 13.6911 47.1567 12.8806C46.7322 12.0701 46.1591 11.4458 45.4375 11.0077C44.7158 10.5477 43.888 10.3176 42.9541 10.3176C41.999 10.3176 41.1606 10.5477 40.4389 11.0077C39.7173 11.4458 39.1548 12.0701 38.7515 12.8806C38.3482 13.6911 38.1466 14.6221 38.1466 15.6736C38.1466 16.7032 38.3376 17.6232 38.7197 18.4337C39.123 19.2224 39.6854 19.8467 40.4071 20.3067C41.15 20.7667 41.9884 20.9967 42.9223 20.9967ZM35.4404 30V7.85324H38.3058V11.9606L37.7645 15.7393L38.3058 19.5509V30H35.4404Z" fill="#F66F4D"/>
<path id="Vector_10" d="M23.341 23.7897C21.9613 23.7897 20.7091 23.4392 19.5841 22.7382C18.4592 22.0153 17.5677 21.0405 16.9097 19.8138C16.273 18.5871 15.9546 17.207 15.9546 15.6736C15.9546 14.1402 16.273 12.7601 16.9097 11.5334C17.5677 10.3067 18.4486 9.33189 19.5523 8.609C20.6772 7.8861 21.9401 7.52466 23.341 7.52466C24.4872 7.52466 25.506 7.77657 26.3974 8.28041C27.3101 8.76234 28.0424 9.44142 28.5943 10.3176C29.1461 11.172 29.4539 12.1687 29.5176 13.3078V18.0066C29.4539 19.1238 29.1461 20.1205 28.5943 20.9967C28.0636 21.873 27.342 22.563 26.4293 23.0668C25.5378 23.5488 24.5084 23.7897 23.341 23.7897ZM23.8186 20.9967C25.2407 20.9967 26.3868 20.5038 27.2571 19.5181C28.1273 18.5104 28.5624 17.2289 28.5624 15.6736C28.5624 14.6002 28.3608 13.6692 27.9575 12.8806C27.5754 12.0701 27.0236 11.4458 26.3019 11.0077C25.5803 10.5477 24.7419 10.3176 23.7867 10.3176C22.8316 10.3176 21.9826 10.5477 21.2397 11.0077C20.518 11.4677 19.9449 12.103 19.5204 12.9135C19.1172 13.7021 18.9155 14.6112 18.9155 15.6408C18.9155 16.6922 19.1172 17.6232 19.5204 18.4337C19.9449 19.2224 20.5286 19.8467 21.2715 20.3067C22.0144 20.7667 22.8634 20.9967 23.8186 20.9967ZM28.3714 23.4611V19.2552L28.9126 15.4436L28.3714 11.6649V7.85324H31.2686V23.4611H28.3714Z" fill="#F66F4D"/>
<path id="Vector_11" d="M5.73083 23.7897C4.45731 23.7897 3.33237 23.5378 2.35601 23.034C1.40087 22.5082 0.615534 21.8073 0 20.931L2.1013 18.9266C2.50459 19.54 3.00338 20.011 3.59769 20.3396C4.21322 20.6681 4.89243 20.8324 5.63532 20.8324C6.3782 20.8324 7.03619 20.6681 7.60927 20.3396C8.18235 20.011 8.62809 19.529 8.94646 18.8938C9.28607 18.2366 9.45587 17.437 9.45587 16.4951V0.657196H12.4486V16.3308C12.4486 17.8423 12.1515 19.1566 11.5572 20.2738C10.9841 21.391 10.1881 22.2563 9.16933 22.8697C8.17174 23.483 7.02558 23.7897 5.73083 23.7897Z" fill="#F66F4D"/>
</g>
</svg>
