<svg width="1440" height="450" viewBox="0 0 1440 450" fill="none" xmlns="http://www.w3.org/2000/svg">
<rect x="135" y="46" width="1170" height="358" rx="30" fill="#FFD482"/>
<g opacity="0.3">
<path d="M226.487 46C226.923 47.8045 227.445 49.6061 228.054 51.4013C235.152 72.3456 253.954 92.5642 281.73 106.344C337.216 133.87 428.264 135.517 531.159 65.7583C540.969 59.1074 550.817 52.5104 560.673 46H566.123C555.015 53.3107 543.907 60.7399 532.842 68.2414C429.237 138.482 337.035 137.13 280.396 109.031C252.11 94.9982 232.63 74.2481 225.213 52.3643C224.496 50.2503 223.893 48.1271 223.405 46H226.487Z" fill="#FAF8ED"/>
<path d="M246.499 404C243.61 388.468 238.49 372.248 231.31 355.594C212.348 311.607 179.087 264.752 135 219.852V215.58C180.359 261.35 214.622 309.305 234.065 354.406C241.396 371.413 246.63 388.036 249.55 404H246.499Z" fill="#FAF8ED"/>
<path d="M638.165 404C628.35 326.972 588.388 267.854 533.394 229.67C469.753 185.481 385.927 169.297 305.304 185.969C285.12 190.143 271.96 195.55 264.419 202.002C260.674 205.206 258.345 208.641 257.197 212.294C256.048 215.948 256.044 219.931 257.128 224.286C259.311 233.061 265.862 243.167 275.91 254.605C285.929 266.01 299.285 278.588 314.866 292.312C327.161 303.141 340.833 314.673 355.31 326.884C382.922 350.174 413.462 375.936 442.966 404H438.609C409.967 376.922 380.409 351.988 353.537 329.318C339.012 317.065 325.271 305.473 312.884 294.563C297.277 280.818 283.805 268.138 273.656 256.585C263.536 245.064 256.58 234.51 254.216 225.011C253.026 220.229 252.989 215.672 254.335 211.394C255.681 207.114 258.375 203.224 262.468 199.723C270.602 192.763 284.38 187.232 304.696 183.031C386.073 166.203 470.747 182.519 535.106 227.205C590.875 265.928 631.349 325.931 641.189 404H638.165Z" fill="#FAF8ED"/>
<path d="M1107.46 404C1111.3 401.416 1115.36 398.717 1119.62 395.887C1123.64 393.216 1127.83 390.429 1132.18 387.512C1153.85 372.983 1179.57 355.17 1207.55 332.338C1235.41 309.607 1248.68 287.309 1251.99 267.572C1255.29 247.872 1248.71 230.506 1236.4 217.467C1211.68 191.298 1163.97 182.672 1127.36 208.23C1089.67 234.533 1027.19 241.981 979.223 216.006C977.328 214.98 975.455 213.901 973.607 212.77C947.998 287.972 903.766 354.118 855.856 404H851.685C900.296 353.959 945.246 287.151 970.997 211.124C950.575 197.883 933.467 177.939 923.087 150.078C913.037 123.105 909.313 88.775 914.905 46H917.931C912.314 88.5866 916.026 122.534 925.898 149.031C935.938 175.978 952.373 195.285 971.982 208.185C988.792 157.423 997.008 102.619 992.047 46H995.062C1000.04 103.246 991.655 158.616 974.59 209.851C976.581 211.087 978.603 212.259 980.652 213.368C1027.56 238.768 1088.83 231.466 1125.64 205.77C1163.53 179.328 1212.88 188.201 1238.58 215.407C1251.47 229.056 1258.42 247.346 1254.95 268.068C1251.48 288.753 1237.66 311.643 1209.45 334.662C1181.36 357.58 1155.55 375.454 1133.85 390.004C1129.46 392.949 1125.24 395.756 1121.2 398.438C1118.32 400.353 1115.54 402.206 1112.85 404H1107.46Z" fill="#FAF8ED"/>
<path d="M1120.41 46C1134.87 53.4466 1147.19 57.8844 1157.9 60.6004C1172.01 64.1798 1183.29 64.7775 1193.15 65.3001L1193.15 65.3001C1196.59 65.4825 1199.86 65.6558 1203.01 65.9434C1209.08 66.4969 1214.72 67.4819 1220.21 69.8436C1225.71 72.211 1230.98 75.9266 1236.39 81.8393C1247.14 93.6063 1258.51 114.17 1273.39 150.43C1283.79 175.771 1294.58 196.661 1305 214.372V220.23C1293.72 201.487 1281.91 179.113 1270.61 151.569C1255.74 115.33 1244.54 95.2059 1234.17 83.8634C1229.02 78.2214 1224.08 74.7768 1219.02 72.5993C1213.95 70.416 1208.67 69.4714 1202.74 68.931C1199.74 68.6577 1196.57 68.4899 1193.19 68.3111C1183.28 67.7864 1171.59 67.1671 1157.16 63.5083C1144.98 60.418 1130.83 55.1656 1114.01 46H1120.41Z" fill="#FAF8ED"/>
</g>
</svg>
